<?xml version="1.0" encoding="UTF-8" standalone="no"?>
<svg
   viewBox="0 0 24 24"
   version="1.1"
   id="svg1"
   sodipodi:docname="barry-app-launcher.svg"
   xml:space="preserve"
   inkscape:version="1.4.2 (ebf0e940d0, 2025-05-08)"
   xmlns:inkscape="http://www.inkscape.org/namespaces/inkscape"
   xmlns:sodipodi="http://sodipodi.sourceforge.net/DTD/sodipodi-0.dtd"
   xmlns="http://www.w3.org/2000/svg"
   xmlns:svg="http://www.w3.org/2000/svg"
   xmlns:rdf="http://www.w3.org/1999/02/22-rdf-syntax-ns#"
   xmlns:cc="http://creativecommons.org/ns#"
   xmlns:dc="http://purl.org/dc/elements/1.1/"><defs
     id="defs1" /><sodipodi:namedview
     id="namedview1"
     pagecolor="#505050"
     bordercolor="#eeeeee"
     borderopacity="1"
     inkscape:showpageshadow="0"
     inkscape:pageopacity="0"
     inkscape:pagecheckerboard="0"
     inkscape:deskcolor="#505050"
     inkscape:zoom="32"
     inkscape:cx="16.484375"
     inkscape:cy="12.75"
     inkscape:window-width="1920"
     inkscape:window-height="1022"
     inkscape:window-x="0"
     inkscape:window-y="0"
     inkscape:window-maximized="1"
     inkscape:current-layer="layer1" /><title
     id="title1">folder</title><g
     inkscape:groupmode="layer"
     id="layer1"
     inkscape:label="Background"
     sodipodi:insensitive="true"><rect
       style="fill:#0073cf;fill-opacity:1;stroke-width:0.990663"
       id="rect3"
       width="20.264933"
       height="22.125"
       x="1.8675336"
       y="0.9375"
       rx="5.9343748"
       ry="5.8477874"
       inkscape:label="rect-background" /></g><g
     inkscape:groupmode="layer"
     id="layer2"
     inkscape:label="Lightning Gear"
     transform="translate(3.75e-4,1.100375)"><path
       id="rect3-6"
       style="fill:#1a1a1a;fill-opacity:1;stroke-width:0.5625"
       inkscape:label="gear"
       d="m 10.874625,9.899625 v 1.579834 a 3.9287109,3.9287109 0 0 0 -0.649292,0.258179 L 8.905875,10.41818 7.3150546,12.009 8.5927647,13.28671 A 3.9287109,3.9287109 0 0 0 8.235709,14.118375 H 6.655875 v 2.25 h 1.579834 a 3.9287109,3.9287109 0 0 0 0.3570556,0.831665 l -1.27771,1.27771 1.5908204,1.59082 1.319458,-1.319458 a 3.9287109,3.9287109 0 0 0 0.649292,0.258178 v 1.579835 h 2.25 V 19.00729 a 3.9287109,3.9287109 0 0 0 0.649292,-0.258178 l 1.319458,1.319458 1.59082,-1.59082 -1.277709,-1.27771 a 3.9287109,3.9287109 0 0 0 0.357054,-0.831665 h 1.579835 v -2.25 H 15.76354 A 3.9287109,3.9287109 0 0 0 15.406486,13.28671 l 1.277709,-1.27771 -1.59082,-1.59082 -1.319458,1.319458 A 3.9287109,3.9287109 0 0 0 13.124625,11.479459 V 9.899625 Z m 1.125,2.997071 a 2.3466797,2.3466797 0 0 1 2.346679,2.346679 2.3466797,2.3466797 0 0 1 -2.346679,2.34668 2.3466797,2.3466797 0 0 1 -2.3466796,-2.34668 2.3466797,2.3466797 0 0 1 2.3466796,-2.346679 z" /><path
       d="M 12.458784,0.72142453 9.6601062,6.1674076 h 1.9594098 v 3.5084369 l 2.719627,-5.4459826 h -1.880359 z"
       style="display:inline;fill:#f4ce14;fill-opacity:1;fill-rule:evenodd;stroke-width:0.559735"
       id="path4"
       inkscape:label="lightning" /></g><metadata
     id="metadata4"><rdf:RDF><cc:Work
         rdf:about=""><dc:title>folder</dc:title></cc:Work></rdf:RDF></metadata></svg>
